<svg t="1664866431397" class="icon" viewBox="0 0 1024 1024" version="1.1" xmlns="http://www.w3.org/2000/svg" p-id="4617"
  width="200" height="200">
  <path
    d="M682.666667 955.733333H170.666667c-66.030933 0-102.4-36.369067-102.4-102.4V170.666667c0-66.030933 36.369067-102.4 102.4-102.4h682.666666c66.030933 0 102.4 36.369067 102.4 102.4v512.0512a16.861867 16.861867 0 0 1-5.000533 12.014933l-256 256a16.9472 16.9472 0 0 1-12.014933 5.000533H682.666667z m-409.6-34.133333h392.533333v-153.6c0-66.030933 36.369067-102.4 102.4-102.4h153.6V170.666667c0-47.223467-21.0432-68.266667-68.266667-68.266667H273.066667v819.2zM170.666667 102.4c-47.223467 0-68.266667 21.0432-68.266667 68.266667v682.666666c0 47.223467 21.0432 68.266667 68.266667 68.266667h68.266666V102.4h-68.266666z m597.333333 597.333333c-47.223467 0-68.266667 21.0432-68.266667 68.266667v129.467733L897.467733 699.733333H768z m-170.666667 85.333334H341.333333a17.066667 17.066667 0 1 1 0-34.133334h256a17.066667 17.066667 0 1 1 0 34.133334z m256-170.666667H341.333333a17.066667 17.066667 0 1 1 0-34.133333h512a17.066667 17.066667 0 1 1 0 34.133333z m0-170.666667H341.333333a17.066667 17.066667 0 0 1 0-34.133333h512a17.066667 17.066667 0 1 1 0 34.133333z m0-170.666666H341.333333a17.066667 17.066667 0 0 1 0-34.133334h512a17.066667 17.066667 0 1 1 0 34.133334z"
    p-id="4618"></path>
</svg>